<svg width="360" height="382" viewBox="0 0 360 382" fill="none" xmlns="http://www.w3.org/2000/svg">
<g clip-path="url(#clip0)">
<path d="M360 0H0V382H360V0Z" fill="#800080"/>
<path d="M68.4943 47.878H68.4346C65.1874 47.878 62.5557 50.3572 62.5557 53.4162C62.5557 56.4751 65.1874 58.9543 68.4346 58.9543H68.4943C71.7415 58.9543 74.3732 56.4751 74.3732 53.4162C74.3732 50.3572 71.7415 47.878 68.4943 47.878Z" fill="black"/>
<path d="M97.6133 47.878H97.5536C94.3064 47.878 91.6747 50.3572 91.6747 53.4162C91.6747 56.4751 94.3064 58.9543 97.5536 58.9543H97.6133C100.86 58.9543 103.492 56.4751 103.492 53.4162C103.492 50.3572 100.86 47.878 97.6133 47.878Z" fill="black"/>
<path d="M126.732 47.878H126.672C123.425 47.878 120.794 50.3572 120.794 53.4162C120.794 56.4751 123.425 58.9543 126.672 58.9543H126.732C129.979 58.9543 132.611 56.4751 132.611 53.4162C132.611 50.3572 129.979 47.878 126.732 47.878Z" fill="black"/>
<path d="M290.205 47.878H176.783C173.536 47.878 170.904 50.3572 170.904 53.4162C170.904 56.473 173.536 58.9543 176.783 58.9543H290.205C293.452 58.9543 296.084 56.473 296.084 53.4162C296.084 50.3572 293.452 47.878 290.205 47.878Z" fill="black"/>
<path d="M183.551 271.643C182.005 271.643 180.494 272.236 179.394 273.266C178.301 274.296 177.672 275.726 177.672 277.182C177.672 278.638 178.301 280.068 179.394 281.097C180.494 282.127 182.005 282.72 183.551 282.72C185.096 282.72 186.614 282.127 187.707 281.097C188.805 280.068 189.43 278.638 189.43 277.182C189.43 275.726 188.805 274.296 187.707 273.266C186.614 272.236 185.096 271.643 183.551 271.643Z" fill="black"/>
<path d="M311.323 21.3532H47.677C37.3797 21.3532 29 29.2473 29 38.9477V265.125C29 274.828 37.3797 282.72 47.677 282.72H158.924C162.171 282.72 164.803 280.241 164.803 277.182C164.803 274.123 162.171 271.643 158.924 271.643H47.677C43.8626 271.643 40.7578 268.721 40.7578 265.125V85.4791H318.242V265.125C318.242 268.719 315.137 271.643 311.323 271.643H207.524C204.276 271.643 201.645 274.123 201.645 277.182C201.645 280.241 204.276 282.72 207.524 282.72H311.323C321.62 282.72 330 274.828 330 265.125V38.9477C330 29.2473 321.62 21.3532 311.323 21.3532V21.3532ZM40.7578 74.4006V38.9477C40.7578 35.3544 43.8626 32.4296 47.677 32.4296H311.323C315.137 32.4296 318.242 35.3544 318.242 38.9477V74.4028H40.7578V74.4006Z" fill="black"/>
<path d="M133.667 148.731C133.667 137.737 124.174 128.794 112.503 128.794H92.7103C89.4631 128.794 86.8314 131.273 86.8314 134.332V191.929C86.8314 194.988 89.4631 197.467 92.7103 197.467H112.503C124.174 197.467 133.667 188.523 133.667 177.529C133.667 171.872 131.151 166.762 127.118 163.13C131.151 159.498 133.667 154.388 133.667 148.731ZM121.91 177.529C121.91 182.414 117.689 186.39 112.503 186.39H98.5892V168.668H112.503C117.689 168.668 121.91 172.642 121.91 177.529ZM98.5892 157.592V139.87H112.503C117.691 139.87 121.91 143.846 121.91 148.731C121.91 153.616 117.691 157.592 112.503 157.592H98.5892Z" fill="black"/>
<path d="M150.487 128.794C147.24 128.794 144.608 131.273 144.608 134.332V179.119C144.608 189.237 153.346 197.467 164.084 197.467C167.331 197.467 169.963 194.988 169.963 191.929C169.963 188.87 167.331 186.39 164.084 186.39C159.829 186.39 156.366 183.128 156.366 179.119V134.332C156.366 131.273 153.734 128.794 150.487 128.794V128.794Z" fill="black"/>
<path d="M219.986 177.413C219.986 166.354 210.438 157.356 198.698 157.356C186.959 157.356 177.41 166.354 177.41 177.413C177.41 188.472 186.961 197.467 198.698 197.467C210.438 197.467 219.986 188.472 219.986 177.413ZM189.168 177.413C189.168 172.461 193.444 168.432 198.698 168.432C203.953 168.432 208.229 172.461 208.229 177.413C208.229 182.362 203.955 186.39 198.698 186.39C193.442 186.39 189.168 182.362 189.168 177.413Z" fill="black"/>
<path d="M250.878 212.974C245.624 212.974 241.348 208.945 241.348 203.996C241.348 200.937 238.716 198.458 235.469 198.458C232.222 198.458 229.59 200.937 229.59 203.996C229.59 215.055 239.141 224.05 250.878 224.05C262.618 224.05 272.169 215.055 272.169 203.996V177.413C272.169 166.354 262.618 157.356 250.878 157.356C239.141 157.356 229.59 166.354 229.59 177.413C229.59 188.472 239.141 197.467 250.878 197.467C254.304 197.467 257.54 196.697 260.411 195.336V203.996C260.411 208.945 256.135 212.974 250.878 212.974V212.974ZM250.878 186.39C245.624 186.39 241.348 182.362 241.348 177.413C241.348 172.461 245.624 168.432 250.878 168.432C256.135 168.432 260.411 172.461 260.411 177.413C260.411 182.362 256.135 186.39 250.878 186.39V186.39Z" fill="black"/>
<path d="M92.7103 251.741H266.29C269.537 251.741 272.169 249.261 272.169 246.203C272.169 243.144 269.537 240.664 266.29 240.664H92.7103C89.4654 240.664 86.8314 243.144 86.8314 246.203C86.8314 249.261 89.4654 251.741 92.7103 251.741V251.741Z" fill="black"/>
<g filter="url(#filter0_d)">
<path d="M118.364 357.4V313.816C118.364 313.304 118.556 312.92 118.94 312.664C119.324 312.365 119.772 312.216 120.284 312.216H130.78C132.743 312.216 134.449 312.365 135.9 312.664C137.351 312.963 138.695 313.496 139.932 314.264C141.212 315.032 142.172 316.163 142.812 317.656C143.495 319.107 143.836 320.92 143.836 323.096C143.836 325.741 143.345 327.981 142.364 329.816C141.383 331.651 140.06 332.931 138.396 333.656C140.529 334.509 142.151 335.789 143.26 337.496C144.412 339.203 144.988 341.592 144.988 344.664V345.816C144.988 350.424 143.836 353.773 141.532 355.864C139.228 357.955 136.156 359 132.316 359H120.284C119.687 359 119.217 358.851 118.876 358.552C118.535 358.211 118.364 357.827 118.364 357.4ZM122.524 355.096H131.804C137.777 355.096 140.764 351.939 140.764 345.624V344.536C140.764 338.477 137.777 335.448 131.804 335.448H122.524V355.096ZM122.524 331.8H130.908C133.937 331.8 136.135 331.181 137.5 329.944C138.908 328.664 139.612 326.531 139.612 323.544C139.612 320.771 138.844 318.851 137.308 317.784C135.772 316.675 133.553 316.12 130.652 316.12H122.524V331.8ZM152.802 357.336V313.752C152.802 312.728 153.506 312.216 154.914 312.216C156.322 312.216 157.026 312.728 157.026 313.752V355.096H175.266C176.204 355.096 176.674 355.736 176.674 357.016C176.674 358.339 176.204 359 175.266 359H154.722C154.21 359 153.762 358.851 153.378 358.552C152.994 358.253 152.802 357.848 152.802 357.336ZM180.915 345.688V325.848C180.915 321.155 182.109 317.72 184.499 315.544C186.931 313.325 190.173 312.216 194.227 312.216C198.28 312.216 201.501 313.325 203.891 315.544C206.323 317.72 207.539 321.155 207.539 325.848V345.688C207.539 350.424 206.323 353.901 203.891 356.12C201.501 358.296 198.28 359.384 194.227 359.384C190.173 359.384 186.931 358.296 184.499 356.12C182.109 353.901 180.915 350.424 180.915 345.688ZM185.139 345.688C185.139 352.216 188.168 355.48 194.227 355.48C200.285 355.48 203.315 352.216 203.315 345.688V325.848C203.315 319.363 200.285 316.12 194.227 316.12C188.168 316.12 185.139 319.363 185.139 325.848V345.688ZM216.227 345.688V325.848C216.227 321.155 217.422 317.72 219.811 315.544C222.243 313.325 225.464 312.216 229.475 312.216C233.528 312.216 236.771 313.261 239.203 315.352C241.635 317.4 242.851 320.045 242.851 323.288C242.851 324.739 242.147 325.464 240.739 325.464C239.374 325.464 238.67 324.931 238.627 323.864C238.03 318.701 235 316.12 229.539 316.12C223.48 316.12 220.451 319.363 220.451 325.848V345.688C220.451 348.973 221.24 351.427 222.819 353.048C224.398 354.669 226.638 355.48 229.539 355.48C232.44 355.48 234.68 354.669 236.259 353.048C237.838 351.427 238.627 348.973 238.627 345.688V338.072H230.051C229.582 338.072 229.198 337.901 228.899 337.56C228.643 337.176 228.515 336.728 228.515 336.216C228.515 335.747 228.643 335.341 228.899 335C229.198 334.616 229.582 334.424 230.051 334.424H241.315C242.339 334.424 242.851 334.979 242.851 336.088V345.688C242.851 350.424 241.635 353.901 239.203 356.12C236.814 358.296 233.592 359.384 229.539 359.384C225.486 359.384 222.243 358.296 219.811 356.12C217.422 353.901 216.227 350.424 216.227 345.688Z" fill="black"/>
</g>
</g>
<defs>
<filter id="filter0_d" x="114.364" y="312.216" width="132.487" height="55.168" filterUnits="userSpaceOnUse" color-interpolation-filters="sRGB">
<feFlood flood-opacity="0" result="BackgroundImageFix"/>
<feColorMatrix in="SourceAlpha" type="matrix" values="0 0 0 0 0 0 0 0 0 0 0 0 0 0 0 0 0 0 127 0"/>
<feOffset dy="4"/>
<feGaussianBlur stdDeviation="2"/>
<feColorMatrix type="matrix" values="0 0 0 0 0 0 0 0 0 0 0 0 0 0 0 0 0 0 0.25 0"/>
<feBlend mode="normal" in2="BackgroundImageFix" result="effect1_dropShadow"/>
<feBlend mode="normal" in="SourceGraphic" in2="effect1_dropShadow" result="shape"/>
</filter>
<clipPath id="clip0">
<rect width="360" height="382" fill="white"/>
</clipPath>
</defs>
</svg>
