<svg width="360" height="382" viewBox="0 0 360 382" fill="none" xmlns="http://www.w3.org/2000/svg">
<g clip-path="url(#clip0)">
<path d="M360 0H0V382H360V0Z" fill="#800080"/>
<g filter="url(#filter0_d)">
<path d="M80.114 368.336V324.752C80.114 323.813 80.6473 323.301 81.714 323.216H93.042C97.1807 323.216 100.509 324.197 103.026 326.16C105.586 328.123 106.866 331.344 106.866 335.824C106.866 342.907 103.538 347.024 96.882 348.176L106.738 367.12C106.909 367.333 106.994 367.611 106.994 367.952C106.994 368.507 106.738 369.019 106.226 369.488C105.714 369.915 105.159 370.128 104.562 370.128C103.794 370.128 103.047 369.381 102.322 367.888L92.466 348.688H84.338V368.336C84.338 368.848 84.1247 369.253 83.698 369.552C83.2713 369.851 82.7807 370 82.226 370C81.6287 370 81.1167 369.851 80.69 369.552C80.306 369.253 80.114 368.848 80.114 368.336ZM84.338 345.04H93.042C99.442 345.04 102.642 342.032 102.642 336.016C102.642 330.085 99.442 327.12 93.042 327.12H84.338V345.04ZM113.989 368.336V324.816C113.989 324.304 114.181 323.92 114.565 323.664C114.949 323.365 115.397 323.216 115.909 323.216H138.693C139.76 323.216 140.293 323.835 140.293 325.072C140.293 325.627 140.144 326.117 139.845 326.544C139.589 326.928 139.205 327.12 138.693 327.12H118.213V344.72H128.261C128.773 344.72 129.157 344.912 129.413 345.296C129.712 345.637 129.861 346.085 129.861 346.64C129.861 347.792 129.328 348.368 128.261 348.368H118.213V366.096H138.693C139.162 366.096 139.546 366.288 139.845 366.672C140.144 367.056 140.293 367.525 140.293 368.08C140.293 369.36 139.76 370 138.693 370H115.909C115.397 370 114.949 369.851 114.565 369.552C114.181 369.253 113.989 368.848 113.989 368.336ZM143.929 363.536C143.929 363.024 144.121 362.512 144.505 362C144.932 361.445 145.38 361.168 145.849 361.168C146.19 361.168 146.617 361.445 147.129 362L148.921 363.856C149.561 364.539 150.564 365.157 151.929 365.712C153.337 366.224 154.958 366.48 156.793 366.48C159.822 366.48 162.169 365.733 163.833 364.24C165.497 362.704 166.329 360.507 166.329 357.648C166.329 355.728 165.924 354.107 165.113 352.784C164.345 351.419 163.342 350.373 162.105 349.648C160.91 348.88 159.545 348.197 158.009 347.6L153.401 345.808C151.865 345.211 150.478 344.507 149.241 343.696C148.046 342.843 147.044 341.669 146.233 340.176C145.465 338.64 145.081 336.827 145.081 334.736C145.081 332.517 145.486 330.619 146.297 329.04C147.15 327.419 148.281 326.203 149.689 325.392C151.097 324.581 152.526 324.005 153.977 323.664C155.47 323.28 157.028 323.088 158.649 323.088C161.252 323.088 163.684 323.472 165.945 324.24C168.249 324.965 169.401 325.883 169.401 326.992C169.401 327.504 169.209 328.037 168.825 328.592C168.484 329.104 168.057 329.36 167.545 329.36C167.289 329.36 166.798 329.168 166.073 328.784C165.348 328.357 164.324 327.952 163.001 327.568C161.721 327.141 160.249 326.928 158.585 326.928C155.897 326.928 153.678 327.504 151.929 328.656C150.18 329.808 149.305 331.707 149.305 334.352C149.305 336.187 149.817 337.723 150.841 338.96C151.908 340.197 153.23 341.093 154.809 341.648C156.388 342.203 158.094 342.864 159.929 343.632C161.764 344.4 163.47 345.232 165.049 346.128C166.628 346.981 167.929 348.368 168.953 350.288C170.02 352.165 170.553 354.491 170.553 357.264C170.553 361.659 169.337 364.965 166.905 367.184C164.473 369.36 161.188 370.448 157.049 370.448C153.337 370.448 150.222 369.659 147.705 368.08C145.188 366.459 143.929 364.944 143.929 363.536ZM177.922 356.688V324.752C177.922 323.728 178.626 323.216 180.034 323.216C181.442 323.216 182.146 323.728 182.146 324.752V356.688C182.146 359.931 182.935 362.384 184.514 364.048C186.135 365.669 188.418 366.48 191.362 366.48C194.306 366.48 196.567 365.669 198.146 364.048C199.767 362.384 200.578 359.931 200.578 356.688V324.752C200.578 323.728 201.282 323.216 202.69 323.216C204.098 323.216 204.802 323.728 204.802 324.752V356.688C204.802 361.424 203.565 364.901 201.09 367.12C198.658 369.296 195.415 370.384 191.362 370.384C187.309 370.384 184.045 369.296 181.57 367.12C179.138 364.901 177.922 361.424 177.922 356.688ZM214.364 368.336V325.264C214.364 323.899 215.068 323.216 216.476 323.216C217.713 323.216 218.844 324.197 219.868 326.16L230.876 347.408L241.884 326.16C242.908 324.197 244.039 323.216 245.276 323.216C246.684 323.216 247.388 323.899 247.388 325.264V368.336C247.388 368.848 247.175 369.253 246.748 369.552C246.364 369.851 245.873 370 245.276 370C244.721 370 244.231 369.851 243.804 369.552C243.377 369.253 243.164 368.848 243.164 368.336V332.368L232.54 352.464C232.071 353.36 231.495 353.808 230.812 353.808C230.172 353.808 229.617 353.36 229.148 352.464L218.588 332.176V368.336C218.588 368.848 218.375 369.253 217.948 369.552C217.521 369.851 217.031 370 216.476 370C215.879 370 215.367 369.851 214.94 369.552C214.556 369.253 214.364 368.848 214.364 368.336ZM257.114 368.336V324.816C257.114 324.304 257.306 323.92 257.69 323.664C258.074 323.365 258.522 323.216 259.034 323.216H281.818C282.885 323.216 283.418 323.835 283.418 325.072C283.418 325.627 283.269 326.117 282.97 326.544C282.714 326.928 282.33 327.12 281.818 327.12H261.338V344.72H271.386C271.898 344.72 272.282 344.912 272.538 345.296C272.837 345.637 272.986 346.085 272.986 346.64C272.986 347.792 272.453 348.368 271.386 348.368H261.338V366.096H281.818C282.287 366.096 282.671 366.288 282.97 366.672C283.269 367.056 283.418 367.525 283.418 368.08C283.418 369.36 282.885 370 281.818 370H259.034C258.522 370 258.074 369.851 257.69 369.552C257.306 369.253 257.114 368.848 257.114 368.336Z" fill="black"/>
</g>
<path d="M265.567 175.671H116.435C113.57 175.671 111.247 177.506 111.247 179.772C111.247 182.038 113.57 183.874 116.435 183.874H265.567C268.432 183.874 270.755 182.038 270.755 179.772C270.755 177.506 268.432 175.671 265.567 175.671Z" fill="black"/>
<path d="M265.567 198.36H116.435C113.57 198.36 111.247 200.196 111.247 202.461C111.247 204.727 113.57 206.563 116.435 206.563H265.567C268.432 206.563 270.755 204.727 270.755 202.461C270.755 200.196 268.432 198.36 265.567 198.36Z" fill="black"/>
<path d="M206.046 221.049H116.435C113.57 221.049 111.247 222.885 111.247 225.151C111.247 227.417 113.57 229.253 116.435 229.253H206.046C208.911 229.253 211.234 227.417 211.234 225.151C211.234 222.885 208.911 221.049 206.046 221.049V221.049Z" fill="black"/>
<path d="M206.046 243.739H116.435C113.57 243.739 111.247 245.575 111.247 247.841C111.247 250.107 113.57 251.942 116.435 251.942H206.046C208.911 251.942 211.234 250.107 211.234 247.841C211.234 245.575 208.911 243.739 206.046 243.739V243.739Z" fill="black"/>
<path d="M216.882 148.568H265.567C268.432 148.568 270.755 146.732 270.755 144.467C270.755 142.201 268.432 140.365 265.567 140.365H216.882C214.017 140.365 211.695 142.201 211.695 144.467C211.695 146.732 214.017 148.568 216.882 148.568Z" fill="black"/>
<path d="M216.882 128.99H265.567C268.432 128.99 270.755 127.154 270.755 124.889C270.755 122.623 268.432 120.787 265.567 120.787H216.882C214.017 120.787 211.695 122.623 211.695 124.889C211.695 127.154 214.017 128.99 216.882 128.99Z" fill="black"/>
<path d="M126.614 164.128H180.305C188.968 164.128 196.016 158.556 196.016 151.706V99.0677C196.016 92.2181 188.968 86.6454 180.305 86.6454H126.614C117.951 86.6454 110.903 92.2175 110.903 99.0677V151.706C110.903 158.556 117.952 164.128 126.614 164.128V164.128ZM180.305 155.925H126.615C124.711 155.925 123.042 155.13 122.097 153.94C126.036 146.615 133.812 141.071 143.416 138.741C146.429 139.972 149.842 140.673 153.46 140.673C157.078 140.673 160.492 139.973 163.504 138.741C173.108 141.071 180.884 146.615 184.823 153.94C183.879 155.13 182.209 155.925 180.305 155.925V155.925ZM153.459 132.47C147.077 132.47 141.885 128.364 141.885 123.318C141.885 118.272 147.077 114.167 153.459 114.167C159.841 114.167 165.034 118.272 165.034 123.318C165.034 128.364 159.842 132.47 153.459 132.47ZM126.614 94.8491H180.305C183.247 94.8491 185.641 96.7418 185.641 99.0682V140.223C181.782 137.022 177.175 134.411 172.034 132.548C174.168 129.873 175.409 126.708 175.409 123.318C175.409 113.749 165.562 105.964 153.459 105.964C141.356 105.964 131.51 113.749 131.51 123.318C131.51 126.709 132.751 129.873 134.885 132.548C129.744 134.411 125.137 137.022 121.278 140.223V99.0682C121.279 96.7418 123.672 94.8491 126.614 94.8491V94.8491Z" fill="black"/>
<path d="M331.076 238.193C328.91 236.711 325.634 236.897 323.759 238.61L292.846 266.85L275.517 256.277C273.25 254.894 269.991 255.224 268.241 257.018C266.49 258.811 266.91 261.387 269.178 262.771L286.886 273.576C291.009 276.091 296.939 275.646 300.376 272.505L331.603 243.978C333.479 242.265 333.243 239.675 331.076 238.193V238.193Z" fill="black"/>
<path d="M322.659 211.841V68.1469C322.659 56.5838 310.76 47.1765 296.136 47.1765H271.592C268.727 47.1765 266.405 49.0124 266.405 51.2781C266.405 53.5438 268.727 55.3796 271.592 55.3796H296.136C305.04 55.3796 312.283 61.107 312.283 68.1469V209.262C308.129 208.548 303.819 208.169 299.398 208.169C299.052 208.169 298.707 208.175 298.363 208.179V75.9033C298.363 70.6549 292.963 66.386 286.326 66.386H252.528V51.4454C252.528 51.3563 252.526 51.2682 252.524 51.1867C252.35 45.0218 245.861 40.0065 238.06 40.0065H223.977V35.5746C223.977 29.192 217.41 24 209.338 24H172.32C164.248 24 157.681 29.192 157.681 35.574V40.0059H143.597C135.796 40.0059 129.307 45.0213 129.133 51.1988L129.13 66.386H95.3316C88.6943 66.386 83.2951 70.6555 83.2951 75.9027V275.273C83.2951 280.521 88.695 284.79 95.3323 284.79H250.905C254.967 289.068 259.91 292.793 265.522 295.796H85.5222C76.6183 295.796 69.3751 290.068 69.3751 283.029V68.1469C69.3751 61.107 76.619 55.3796 85.5222 55.3796H109.902C112.767 55.3796 115.09 53.5438 115.09 51.2781C115.09 49.0124 112.767 47.1765 109.902 47.1765H85.5222C70.8975 47.1765 59 56.5838 59 68.1469V283.03C59 294.593 70.8982 304 85.5222 304H299.398C332.814 304 360 282.505 360 256.085C360 236.176 344.564 219.067 322.659 211.841V211.841ZM139.505 51.4454L139.506 51.3694C139.555 49.6265 141.391 48.2096 143.597 48.2096H159.004C163.995 48.2096 168.056 44.9989 168.056 41.0521V35.574C168.056 33.7158 169.968 32.2031 172.319 32.2031H209.337C211.688 32.2031 213.601 33.7158 213.601 35.574V41.0521C213.601 44.9989 217.662 48.2096 222.654 48.2096H238.06C240.266 48.2096 242.102 49.6271 242.151 51.3771L242.153 66.386H139.505V51.4454ZM95.3323 276.587C94.4158 276.587 93.6702 275.998 93.6702 275.273V75.9027C93.6702 75.1787 94.4158 74.5891 95.3316 74.5891H286.326C287.242 74.5891 287.988 75.1787 287.988 75.9033V209.024C260.007 213.256 238.794 232.746 238.794 256.084C238.794 263.417 240.891 270.368 244.631 276.587H95.3323ZM299.398 295.796C298.832 295.796 298.272 295.777 297.711 295.762C297.705 295.762 297.699 295.762 297.693 295.762C270.785 295.048 249.17 277.529 249.17 256.083C249.17 234.186 271.702 216.371 299.398 216.371C327.093 216.371 349.625 234.186 349.625 256.083C349.625 277.981 327.094 295.796 299.398 295.796Z" fill="black"/>
</g>
<defs>
<filter id="filter0_d" x="76.114" y="323.088" width="211.304" height="55.36" filterUnits="userSpaceOnUse" color-interpolation-filters="sRGB">
<feFlood flood-opacity="0" result="BackgroundImageFix"/>
<feColorMatrix in="SourceAlpha" type="matrix" values="0 0 0 0 0 0 0 0 0 0 0 0 0 0 0 0 0 0 127 0"/>
<feOffset dy="4"/>
<feGaussianBlur stdDeviation="2"/>
<feColorMatrix type="matrix" values="0 0 0 0 0 0 0 0 0 0 0 0 0 0 0 0 0 0 0.25 0"/>
<feBlend mode="normal" in2="BackgroundImageFix" result="effect1_dropShadow"/>
<feBlend mode="normal" in="SourceGraphic" in2="effect1_dropShadow" result="shape"/>
</filter>
<clipPath id="clip0">
<rect width="360" height="382" fill="white"/>
</clipPath>
</defs>
</svg>
