<svg width="360" height="382" viewBox="0 0 360 382" fill="none" xmlns="http://www.w3.org/2000/svg">
<g clip-path="url(#clip0)">
<rect width="360" height="382" fill="#800080"/>
<g filter="url(#filter0_d)">
<path d="M111.239 362.336V318.752C111.239 317.728 111.943 317.216 113.351 317.216C114.759 317.216 115.463 317.728 115.463 318.752V337.888H133.959V318.752C133.959 317.728 134.663 317.216 136.071 317.216C137.479 317.216 138.183 317.728 138.183 318.752V362.336C138.183 362.848 137.97 363.253 137.543 363.552C137.116 363.851 136.626 364 136.071 364C135.474 364 134.962 363.851 134.535 363.552C134.151 363.253 133.959 362.848 133.959 362.336V341.536H115.463V362.336C115.463 362.848 115.25 363.253 114.823 363.552C114.396 363.851 113.906 364 113.351 364C112.754 364 112.242 363.851 111.815 363.552C111.431 363.253 111.239 362.848 111.239 362.336ZM147.415 350.688V330.848C147.415 326.155 148.609 322.72 150.999 320.544C153.431 318.325 156.673 317.216 160.727 317.216C164.78 317.216 168.001 318.325 170.391 320.544C172.823 322.72 174.039 326.155 174.039 330.848V350.688C174.039 355.424 172.823 358.901 170.391 361.12C168.001 363.296 164.78 364.384 160.727 364.384C156.673 364.384 153.431 363.296 150.999 361.12C148.609 358.901 147.415 355.424 147.415 350.688ZM151.639 350.688C151.639 357.216 154.668 360.48 160.727 360.48C166.785 360.48 169.815 357.216 169.815 350.688V330.848C169.815 324.363 166.785 321.12 160.727 321.12C154.668 321.12 151.639 324.363 151.639 330.848V350.688ZM183.239 362.336V319.264C183.239 317.899 183.943 317.216 185.351 317.216C186.588 317.216 187.719 318.197 188.743 320.16L199.751 341.408L210.759 320.16C211.783 318.197 212.914 317.216 214.151 317.216C215.559 317.216 216.263 317.899 216.263 319.264V362.336C216.263 362.848 216.05 363.253 215.623 363.552C215.239 363.851 214.748 364 214.151 364C213.596 364 213.106 363.851 212.679 363.552C212.252 363.253 212.039 362.848 212.039 362.336V326.368L201.415 346.464C200.946 347.36 200.37 347.808 199.687 347.808C199.047 347.808 198.492 347.36 198.023 346.464L187.463 326.176V362.336C187.463 362.848 187.25 363.253 186.823 363.552C186.396 363.851 185.906 364 185.351 364C184.754 364 184.242 363.851 183.815 363.552C183.431 363.253 183.239 362.848 183.239 362.336ZM225.989 362.336V318.816C225.989 318.304 226.181 317.92 226.565 317.664C226.949 317.365 227.397 317.216 227.909 317.216H250.693C251.76 317.216 252.293 317.835 252.293 319.072C252.293 319.627 252.144 320.117 251.845 320.544C251.589 320.928 251.205 321.12 250.693 321.12H230.213V338.72H240.261C240.773 338.72 241.157 338.912 241.413 339.296C241.712 339.637 241.861 340.085 241.861 340.64C241.861 341.792 241.328 342.368 240.261 342.368H230.213V360.096H250.693C251.162 360.096 251.546 360.288 251.845 360.672C252.144 361.056 252.293 361.525 252.293 362.08C252.293 363.36 251.76 364 250.693 364H227.909C227.397 364 226.949 363.851 226.565 363.552C226.181 363.253 225.989 362.848 225.989 362.336Z" fill="black"/>
</g>
<path d="M329.593 139.009L271.104 94.1027C271.172 93.7955 271.24 93.4884 271.309 93.1198V34.3921C271.24 30.8905 268.166 28.0647 264.271 27.9418H231.61C227.852 27.9418 224.777 30.9519 224.777 34.3921V58.7186L177.972 22.8431C175.444 20.8773 171.686 20.8773 169.09 22.8431L17.4694 138.947C14.5313 141.097 14.1897 144.967 16.5812 147.609C18.9727 150.25 23.2773 150.558 26.2155 148.407C26.2838 148.346 26.2838 148.346 26.3521 148.285L173.531 35.6207L226.212 75.9806L257.711 100.061L320.778 148.346C323.648 150.558 327.953 150.25 330.413 147.67C332.804 145.09 332.463 141.22 329.593 139.009ZM257.575 83.7209L238.443 69.2233V40.2894H257.575V83.7209Z" fill="black"/>
<path d="M299.46 151.418L280.26 136.674L177.972 58.1043C175.444 56.1386 171.686 56.1386 169.09 58.1043L66.8024 136.674L47.6021 151.418C44.7323 153.629 44.3907 157.499 46.8505 160.079C49.242 162.659 53.4783 162.967 56.2798 160.817L56.3481 160.755L64.8892 154.121V269.303C64.9575 272.743 68.1006 275.569 71.927 275.631H275.067C278.893 275.569 282.036 272.805 282.105 269.303V154.121L290.646 160.755C291.876 161.677 293.379 162.229 295.019 162.229C297 162.229 298.913 161.431 300.212 160.079C302.74 157.438 302.33 153.568 299.46 151.418ZM200.862 263.283H146.2V196.938H200.862V263.283ZM214.528 263.283V190.979C214.528 187.6 211.727 184.652 207.968 184.652H139.094C135.336 184.652 132.534 187.6 132.534 190.979V263.283H78.5548V143.616L173.531 70.8819L268.507 143.616V263.283H214.528Z" fill="black"/>
</g>
<defs>
<filter id="filter0_d" x="107.239" y="317.216" width="149.054" height="55.168" filterUnits="userSpaceOnUse" color-interpolation-filters="sRGB">
<feFlood flood-opacity="0" result="BackgroundImageFix"/>
<feColorMatrix in="SourceAlpha" type="matrix" values="0 0 0 0 0 0 0 0 0 0 0 0 0 0 0 0 0 0 127 0"/>
<feOffset dy="4"/>
<feGaussianBlur stdDeviation="2"/>
<feColorMatrix type="matrix" values="0 0 0 0 0 0 0 0 0 0 0 0 0 0 0 0 0 0 0.25 0"/>
<feBlend mode="normal" in2="BackgroundImageFix" result="effect1_dropShadow"/>
<feBlend mode="normal" in="SourceGraphic" in2="effect1_dropShadow" result="shape"/>
</filter>
<clipPath id="clip0">
<rect width="360" height="382" fill="white"/>
</clipPath>
</defs>
</svg>
