<svg width="157" height="139" viewBox="0 0 157 139" fill="none" xmlns="http://www.w3.org/2000/svg">
<g clip-path="url(#clip0)">
<path d="M44.4834 44.0167V62.55L23.55 74.1333L2.6167 62.55V44.0167L23.55 32.4333L44.4834 44.0167Z" fill="#124150"/>
<path d="M65.4167 74.1333V92.6667L44.4834 104.25L23.55 92.6667V74.1333L44.4834 62.55L65.4167 74.1333Z" fill="#FFEB3A" fill-opacity="0.02"/>
<path d="M44.4834 104.25V122.783L23.55 134.367L2.6167 122.783V104.25L23.55 92.6667L44.4834 104.25Z" fill="#FFDC00" fill-opacity="0.03"/>
<path d="M86.35 104.25V122.783L65.4167 134.367L44.4834 122.783V104.25L65.4167 92.6667L86.35 104.25Z" fill="#124150"/>
<path d="M99.4334 18.5333V36.7887L86.35 44.0167L65.4167 32.4333V14.2011L78.5 6.94998L99.4334 18.5333Z" fill="#124150"/>
<path d="M122.853 99.6167C122.523 95.4814 122.389 95.5208 117.75 74.1333H91.5834C87.3627 93.5933 86.35 96.6397 86.35 103.092C86.3051 108.206 87.2068 113.293 89.019 118.15C96.1573 136.649 113.155 136.7 120.314 118.15C122.515 112.177 123.377 105.882 122.853 99.6167Z" fill="#F0C419"/>
<path d="M115.421 90.35H93.9122C100.375 85.5545 104.667 78.2107 104.667 74.1333C104.894 76.7043 105.789 79.1939 107.283 81.4077C109.327 84.8207 112.089 87.8561 115.421 90.35Z" fill="#FFDC00"/>
<path d="M122.853 99.6167H86.4809C86.6253 97.7046 86.8962 95.8017 87.292 93.9177C89.7023 93.0534 91.9381 91.8485 93.9122 90.35H115.421C117.402 91.8405 119.636 93.0446 122.041 93.9177C122.437 95.8017 122.708 97.7046 122.853 99.6167Z" fill="#37474F"/>
<path d="M122.617 108.883H86.7164C86.3255 105.807 86.2467 102.706 86.4809 99.6167H122.853C123.087 102.706 123.008 105.807 122.617 108.883Z" fill="#FEC108"/>
<path d="M122.617 108.883C122.24 112.038 121.468 115.146 120.314 118.15H89.019C87.8659 115.146 87.0936 112.038 86.7164 108.883H122.617Z" fill="#37474F"/>
<path d="M120.314 118.15C113.194 136.6 96.2253 136.767 89.019 118.15H120.314Z" fill="#FEC108"/>
<path d="M86.4809 99.6167H115.003C115.236 102.706 115.157 105.807 114.767 108.883H86.7164L86.4809 99.6167Z" fill="white"/>
<path d="M112.464 118.15C109.9 124.776 105.713 129.664 100.742 131.355C95.77 129.664 91.5834 124.776 89.019 118.15H112.464Z" fill="white"/>
<path d="M117.75 67.1833V71.8862C115.254 71.9093 104.667 71.9487 104.667 74.1333C104.667 72.4885 99.3287 72.002 91.5834 71.8862V67.1833C91.5834 60.786 97.441 55.6 104.667 55.6C111.892 55.6 117.75 60.786 117.75 67.1833Z" fill="#37474F"/>
<path d="M54.95 83.4C54.95 89.7963 68.1093 94.9833 81.1167 94.9833C94.1242 94.9833 104.667 80.5296 104.667 74.1333C104.667 71.8167 94.1242 71.8167 81.1167 71.8167C68.1093 71.8167 54.95 77.0037 54.95 83.4Z" fill="#F5F5F5"/>
<path d="M154.383 83.4C154.383 91.5083 134.274 96.2714 125.312 94.7285C117.878 93.6559 110.837 87.387 107.283 81.4077C105.789 79.1939 104.894 76.7043 104.667 74.1333C104.667 72.6553 109.139 72.28 110.842 72.1642C115.149 71.8028 123.483 71.8167 128.217 71.8167C141.222 71.8167 154.383 77.006 154.383 83.4Z" fill="#CFD8DC"/>
<path d="M146.533 83.4C146.533 88.9832 136.512 93.6397 125.312 94.7285C114.846 93.2203 104.667 80.9003 104.667 74.1333C104.667 71.6753 117.97 71.8398 121.099 71.8398C133.869 72.002 146.533 77.1218 146.533 83.4Z" fill="#F5F5F5"/>
<path d="M1.22983 124.748C23.9844 137.351 22.4824 136.683 23.55 136.683C24.6176 136.683 23.2883 137.237 44.4833 125.515C65.7228 137.267 64.37 136.683 65.4167 136.683C66.4633 136.683 65.4167 137.093 82.5297 127.621C83.758 126.942 84.1323 125.51 83.3657 124.422C82.599 123.335 80.9818 123.003 79.7534 123.682L65.4167 131.635L47.1 121.5V105.533L56.6535 100.238C57.8818 99.5582 58.2555 98.1258 57.4882 97.0382C56.7208 95.9507 55.1029 95.6198 53.8746 96.2992L44.4833 101.516L26.1667 91.3832V75.4168L44.4833 65.2837C54.6883 70.9433 54.0159 70.6491 54.7459 70.7811C55.9729 70.9836 57.1907 70.3906 57.6546 69.3647C58.1185 68.3388 57.6993 67.1656 56.6535 66.5625L47.1 61.2666V45.3001L65.4167 35.1647L83.7333 45.3001V48.65C83.7333 49.9295 84.9049 50.9667 86.35 50.9667C87.7951 50.9667 88.9667 49.9295 88.9667 48.65V45.3001L107.283 35.1647L125.6 45.3001V62.55C125.6 63.8295 126.772 64.8667 128.217 64.8667C129.662 64.8667 130.833 63.8295 130.833 62.55V44.0167C130.833 43.2179 130.369 42.4755 129.604 42.0521L109.9 31.1499V13.9C109.9 13.1012 109.435 12.3588 108.67 11.9355L87.7368 0.352139C86.8883 -0.11738 85.8117 -0.11738 84.9632 0.352139L65.4167 11.1687L45.8702 0.352139C45.0217 -0.11738 43.945 -0.11738 43.0965 0.352139L22.1632 11.9355C21.3981 12.3588 20.9333 13.1012 20.9333 13.9V31.1499L1.22983 42.0521C0.464769 42.4755 -2.11948e-06 43.2179 0 44.0167V62.55C-2.11948e-06 63.3488 0.464769 64.0912 1.22983 64.5145L20.9333 75.4168V91.3832L1.22983 102.285C0.464769 102.709 -2.11948e-06 103.451 0 104.25V122.783C-2.11948e-06 123.582 0.464769 124.325 1.22983 124.748ZM68.0333 15.1834L86.35 5.04802L104.667 15.1834V31.1499L86.35 41.2853L68.0333 31.1499V15.1834ZM26.1667 15.1834L44.4833 5.04802L62.8 15.1834V31.1499L44.4833 41.2853L26.1667 31.1499V15.1834ZM5.23333 61.2666V45.3001L23.55 35.1647L41.8667 45.3001V61.2666L23.55 71.402L5.23333 61.2666ZM5.23333 105.533L23.55 95.398L41.8667 105.533V121.5L23.55 131.635L5.23333 121.5V105.533Z" fill="black"/>
<path d="M120.367 69.5278V67.1833C120.366 63.125 118.358 59.2704 114.872 56.6355L117.488 52.0022C118.12 50.8589 117.591 49.479 116.305 48.9114C115.018 48.3439 113.455 48.8012 112.805 49.9357L110.379 54.2471C106.717 52.9657 102.642 52.9657 98.9807 54.2471L96.555 49.9334C96.1424 49.186 95.3088 48.6919 94.3711 48.6388C93.4334 48.5857 92.5355 48.9818 92.0187 49.6766C91.502 50.3714 91.4456 51.2582 91.8712 51.9999L94.4878 56.6332C90.991 59.2642 88.9729 63.1204 88.9667 67.1833V69.5208C86.5855 69.5 83.995 69.5 81.1167 69.5C67.2169 69.5 52.3333 75.0855 52.3333 83.4C52.3333 93.3802 73.5938 98.6413 84.1703 97.0475C84.0709 97.8143 84.0081 98.5788 83.9244 99.3479C83.899 99.4365 83.8789 99.5262 83.8642 99.6167C83.8642 99.6769 83.8982 99.7279 83.9034 99.7881C83.8249 100.889 83.7333 101.989 83.7333 103.092C83.7333 119.308 91.5833 132.238 102.05 134.11V136.683C102.05 137.963 103.222 139 104.667 139C106.112 139 107.283 137.963 107.283 136.683V134.11C117.75 132.238 125.6 119.299 125.6 103.092C125.6 101.989 125.508 100.889 125.43 99.7881C125.43 99.7279 125.469 99.6769 125.469 99.6167C125.469 99.5194 125.417 99.4383 125.409 99.3456C125.325 98.5811 125.265 97.8212 125.166 97.0591C135.881 98.6367 157 93.3617 157 83.4C157 75.0855 142.116 69.5 128.217 69.5C125.469 69.5 122.824 69.5 120.367 69.5278ZM94.2 67.1833C94.2 62.0655 98.8861 57.9167 104.667 57.9167C110.447 57.9167 115.133 62.0655 115.133 67.1833V69.6205C111.592 69.5684 108.065 70.0189 104.685 70.9549C101.301 69.9837 97.7557 69.5301 94.2 69.6135V67.1833ZM109.186 88.0333H100.14C101.903 86.1658 103.426 84.1309 104.682 81.966C105.909 84.1383 107.42 86.1749 109.186 88.0333ZM81.1167 92.6667C68.4337 92.6667 57.5667 87.57 57.5667 83.4C57.5667 79.23 68.4337 74.1333 81.1167 74.1333C86.35 74.1333 98.7295 74.0499 101.979 74.9627C101.084 80.5343 91.9654 92.6667 81.1167 92.6667ZM118.381 115.833H115.133C113.688 115.833 112.517 116.871 112.517 118.15C112.517 119.429 113.688 120.467 115.133 120.467H116.442C110.075 132.814 99.2606 132.81 92.8917 120.467H104.667C106.112 120.467 107.283 119.429 107.283 118.15C107.283 116.871 106.112 115.833 104.667 115.833H90.9527C90.4545 114.31 90.0527 112.763 89.7491 111.2H119.582C119.279 112.763 118.878 114.31 118.381 115.833ZM120.212 106.567H89.1237C88.952 105.027 88.9196 103.478 89.0269 101.933H91.5833C93.0285 101.933 94.2 100.896 94.2 99.6167C94.2 98.3372 93.0285 97.3 91.5833 97.3H89.4063C89.49 96.6861 89.5816 96.0722 89.6915 95.4629C91.4909 94.6969 93.1905 93.7593 94.76 92.6667H114.529C116.114 93.7753 117.831 94.7269 119.65 95.5046C119.754 96.1 119.846 96.7 119.927 97.3H102.05C100.605 97.3 99.4333 98.3372 99.4333 99.6167C99.4333 100.896 100.605 101.933 102.05 101.933H120.306C120.421 103.477 120.388 105.027 120.21 106.567H120.212ZM151.767 83.4C151.767 89.1615 132.312 94.9602 123.004 91.7632C115.229 88.517 109.494 82.3702 107.362 74.9974C111.122 73.9943 122.46 74.1658 128.217 74.1333C140.9 74.1333 151.767 79.23 151.767 83.4Z" fill="black"/>
</g>
<defs>
<clipPath id="clip0">
<rect width="157" height="139" fill="white"/>
</clipPath>
</defs>
</svg>
