<svg width="360" height="382" viewBox="0 0 360 382" fill="none" xmlns="http://www.w3.org/2000/svg">
<g clip-path="url(#clip0)">
<rect width="360" height="382" fill="#800080"/>
<g filter="url(#filter0_d)">
<path d="M69.0203 362.336V318.752C69.0203 317.813 69.6176 317.301 70.8123 317.216H82.5883C86.5989 317.216 89.7989 318.304 92.1883 320.48C94.5776 322.656 95.7723 326.091 95.7723 330.784V331.424C95.7723 336.117 94.5563 339.573 92.1243 341.792C89.7349 343.968 86.5136 345.056 82.4603 345.056H73.2443V362.336C73.2443 362.848 73.0309 363.253 72.6042 363.552C72.1776 363.851 71.6869 364 71.1323 364C70.5349 364 70.0229 363.851 69.5963 363.552C69.2123 363.253 69.0203 362.848 69.0203 362.336ZM73.2443 341.408H82.4603C85.3616 341.408 87.6016 340.597 89.1803 338.976C90.7589 337.355 91.5483 334.901 91.5483 331.616V330.848C91.5483 324.363 88.5189 321.12 82.4603 321.12H73.2443V341.408ZM102.77 362.336V318.752C102.77 317.813 103.304 317.301 104.37 317.216H115.698C119.837 317.216 123.165 318.197 125.682 320.16C128.242 322.123 129.522 325.344 129.522 329.824C129.522 336.907 126.194 341.024 119.538 342.176L129.394 361.12C129.565 361.333 129.65 361.611 129.65 361.952C129.65 362.507 129.394 363.019 128.882 363.488C128.37 363.915 127.816 364.128 127.218 364.128C126.45 364.128 125.704 363.381 124.978 361.888L115.122 342.688H106.994V362.336C106.994 362.848 106.781 363.253 106.354 363.552C105.928 363.851 105.437 364 104.882 364C104.285 364 103.773 363.851 103.346 363.552C102.962 363.253 102.77 362.848 102.77 362.336ZM106.994 339.04H115.698C122.098 339.04 125.298 336.032 125.298 330.016C125.298 324.085 122.098 321.12 115.698 321.12H106.994V339.04ZM136.133 350.688V330.848C136.133 326.155 137.328 322.72 139.717 320.544C142.149 318.325 145.392 317.216 149.445 317.216C153.499 317.216 156.72 318.325 159.109 320.544C161.541 322.72 162.757 326.155 162.757 330.848V350.688C162.757 355.424 161.541 358.901 159.109 361.12C156.72 363.296 153.499 364.384 149.445 364.384C145.392 364.384 142.149 363.296 139.717 361.12C137.328 358.901 136.133 355.424 136.133 350.688ZM140.357 350.688C140.357 357.216 143.387 360.48 149.445 360.48C155.504 360.48 158.533 357.216 158.533 350.688V330.848C158.533 324.363 155.504 321.12 149.445 321.12C143.387 321.12 140.357 324.363 140.357 330.848V350.688ZM168.566 353.12C168.566 351.669 169.248 350.944 170.614 350.944C172.064 350.944 172.79 351.499 172.79 352.608C172.79 355.04 173.6 356.96 175.222 358.368C176.886 359.776 179.104 360.48 181.878 360.48C184.779 360.48 187.019 359.669 188.598 358.048C190.176 356.427 190.966 353.973 190.966 350.688V321.12H181.942C181.43 321.12 181.024 320.928 180.726 320.544C180.47 320.117 180.342 319.627 180.342 319.072C180.342 318.56 180.47 318.133 180.726 317.792C181.024 317.408 181.43 317.216 181.942 317.216H193.206C194.528 317.216 195.19 317.749 195.19 318.816V350.688C195.19 355.424 193.974 358.901 191.542 361.12C189.152 363.296 185.974 364.384 182.006 364.384C177.952 364.384 174.688 363.339 172.214 361.248C169.782 359.115 168.566 356.405 168.566 353.12ZM204.708 362.336V318.816C204.708 318.304 204.9 317.92 205.284 317.664C205.668 317.365 206.116 317.216 206.628 317.216H229.412C230.478 317.216 231.012 317.835 231.012 319.072C231.012 319.627 230.862 320.117 230.564 320.544C230.308 320.928 229.924 321.12 229.412 321.12H208.932V338.72H218.98C219.492 338.72 219.876 338.912 220.132 339.296C220.43 339.637 220.58 340.085 220.58 340.64C220.58 341.792 220.046 342.368 218.98 342.368H208.932V360.096H229.412C229.881 360.096 230.265 360.288 230.564 360.672C230.862 361.056 231.012 361.525 231.012 362.08C231.012 363.36 230.478 364 229.412 364H206.628C206.116 364 205.668 363.851 205.284 363.552C204.9 363.253 204.708 362.848 204.708 362.336ZM235.883 350.688V330.848C235.883 326.197 237.121 322.763 239.595 320.544C242.113 318.325 245.355 317.216 249.323 317.216C253.377 317.216 256.577 318.261 258.923 320.352C261.313 322.4 262.507 324.917 262.507 327.904C262.507 328.928 262.337 329.611 261.995 329.952C261.697 330.293 261.163 330.464 260.395 330.464C259.073 330.464 258.369 329.931 258.283 328.864C258.241 328.224 258.155 327.605 258.027 327.008C257.899 326.411 257.643 325.749 257.259 325.024C256.875 324.256 256.363 323.595 255.723 323.04C255.126 322.485 254.273 322.037 253.163 321.696C252.054 321.312 250.774 321.12 249.323 321.12C243.179 321.12 240.107 324.363 240.107 330.848V350.688C240.107 357.216 243.265 360.48 249.579 360.48C251.371 360.48 252.865 360.245 254.059 359.776C255.254 359.264 256.129 358.539 256.683 357.6C257.238 356.661 257.601 355.872 257.771 355.232C257.985 354.549 258.155 353.675 258.283 352.608C258.411 351.499 259.115 350.944 260.395 350.944C261.163 350.944 261.697 351.136 261.995 351.52C262.337 351.861 262.507 352.544 262.507 353.568C262.507 356.597 261.291 359.157 258.859 361.248C256.47 363.339 253.227 364.384 249.131 364.384C245.206 364.384 242.006 363.275 239.531 361.056C237.099 358.837 235.883 355.381 235.883 350.688ZM265.991 319.2C265.991 318.688 266.119 318.24 266.375 317.856C266.674 317.429 267.079 317.216 267.591 317.216H293.255C293.767 317.216 294.151 317.408 294.407 317.792C294.706 318.176 294.855 318.624 294.855 319.136C294.855 319.691 294.706 320.181 294.407 320.608C294.151 320.992 293.767 321.184 293.255 321.184H282.567V362.336C282.567 362.848 282.354 363.253 281.927 363.552C281.501 363.851 281.01 364 280.455 364C279.858 364 279.346 363.851 278.919 363.552C278.535 363.253 278.343 362.848 278.343 362.336V321.184H267.591C267.122 321.184 266.738 320.992 266.439 320.608C266.141 320.224 265.991 319.755 265.991 319.2Z" fill="black"/>
</g>
<g clip-path="url(#clip1)">
<path d="M331.53 88.1621C331.529 88.1621 331.529 88.1621 331.528 88.1621L331.518 88.1532L311.25 85.6575C308.402 85.3073 306.421 83.0303 306.827 80.5717C307.021 79.3902 307.753 78.3245 308.859 77.6084L325.24 67.0051C327.542 65.515 328.008 62.6967 326.282 60.7097L307.525 39.1255C305.798 37.1385 302.533 36.7361 300.231 38.2262L283.855 48.8294C281.562 50.3307 278.294 49.944 276.555 47.9655C275.71 47.0049 275.348 45.7913 275.55 44.598L278.447 27.1058C278.855 24.6472 276.877 22.3691 274.029 22.0161C274.027 22.0161 274.025 22.0155 274.023 22.0155L243.095 18.2023C240.247 17.8493 237.606 19.5558 237.197 22.0144C237.197 22.015 237.197 22.015 237.197 22.0155L234.301 39.5077C233.895 41.9663 231.257 43.6756 228.408 43.3254C227.039 43.1574 225.804 42.5261 224.974 41.5717L212.694 27.4341C210.967 25.4471 207.702 25.0446 205.4 26.5347L189.743 36.6748C182.66 36.025 175.516 36.025 168.433 36.6748C122.045 41.2508 85.6682 73.1785 81.1464 113.285C81.0057 114.558 80.9536 115.821 80.8806 117.085H79.3176C76.8453 117.089 74.7163 118.592 74.222 120.682L70.6217 135.459L56.1999 126.874C54.1301 125.642 51.3348 125.861 49.5568 127.396L33.9262 140.886C32.1508 142.42 31.8968 144.829 33.3218 146.615L43.2212 159.039L26.0952 162.147C23.6998 162.6 21.9948 164.433 22 166.549V184.536C21.9987 186.663 23.7252 188.5 26.1369 188.938L43.2629 192.045L33.3635 204.47C31.9385 206.255 32.1925 208.664 33.9679 210.198L49.5985 223.689C51.3765 225.223 54.1718 225.443 56.2415 224.21L70.6374 215.644L74.2376 230.425C74.7319 232.515 76.8609 234.018 79.3332 234.022H100.174C102.638 234.023 104.767 232.533 105.275 230.452L108.875 215.671L123.271 224.215C125.34 225.445 128.131 225.225 129.909 223.693L138 216.687V229.503C138.024 235.9 141.994 241.801 148.421 244.989V269.973C148.421 279.907 157.751 287.96 169.261 287.96H190.102C201.612 287.96 210.943 279.907 210.943 269.973V244.989C217.369 241.801 221.34 235.9 221.364 229.503V211.705C221.505 204.216 226.044 197.302 233.415 193.349C237.739 190.928 241.839 188.222 245.68 185.255L238.729 178.555C235.294 181.213 231.623 183.635 227.751 185.799C217.406 191.403 211.073 201.163 210.943 211.705V229.503C210.943 234.47 206.278 238.496 200.523 238.496H158.841C153.086 238.496 148.421 234.47 148.421 229.503V211.332C148.3 200.99 142.067 191.418 131.894 185.952C90.5983 163.557 78.1563 116.511 104.105 80.8707C120.204 58.7576 148.301 45.2984 178.562 45.2051C178.484 45.3653 178.416 45.5288 178.359 45.6952C178.165 46.8756 178.523 48.0745 179.354 49.0273L191.634 63.1604C192.929 64.6067 193.053 66.5931 191.947 68.1518C190.881 69.72 188.821 70.5755 186.737 70.3147L166.469 67.8145C163.62 67.4621 160.98 69.1692 160.571 71.6272C160.571 71.6289 160.571 71.6305 160.571 71.6322L156.147 98.3382C155.739 100.796 157.717 103.075 160.565 103.428C160.567 103.428 160.569 103.428 160.571 103.428L180.839 105.929C183.687 106.279 185.668 108.556 185.262 111.014C185.067 112.196 184.336 113.262 183.23 113.978L166.854 124.577C164.552 126.067 164.086 128.885 165.812 130.872L184.569 152.456C186.296 154.443 189.561 154.846 191.863 153.355L208.244 142.757C210.549 141.269 213.814 141.676 215.537 143.665C216.362 144.617 216.717 145.812 216.523 146.988L213.632 164.48C213.223 166.938 215.2 169.218 218.049 169.571C218.049 169.571 218.049 169.571 218.05 169.571L248.999 173.388C249.242 173.415 249.488 173.429 249.733 173.429C252.327 173.432 254.528 171.787 254.897 169.571L257.788 152.078C258.194 149.62 260.832 147.911 263.681 148.261C265.05 148.429 266.285 149.06 267.114 150.014L279.4 164.148C281.127 166.135 284.392 166.537 286.694 165.047L311.704 148.859C314.006 147.369 314.472 144.55 312.746 142.563L300.465 128.43C299.176 126.982 299.052 124.999 300.152 123.439C301.195 121.85 303.274 120.989 305.363 121.28L325.63 123.776C328.478 124.129 331.119 122.422 331.528 119.964C331.528 119.963 331.528 119.963 331.528 119.963L335.947 93.2524C336.356 90.7938 334.378 88.5151 331.53 88.1621ZM158.841 247.49H200.523V256.483H158.841V247.49V247.49ZM158.841 265.477H200.523V269.973C200.523 274.94 195.858 278.967 190.102 278.967H169.261C163.506 278.967 158.841 274.94 158.841 269.973V265.477V265.477ZM117.363 187.931C120.207 189.938 123.18 191.808 126.267 193.529C131.19 196.214 134.896 200.276 136.765 205.036L125.589 214.664L114.768 208.224C110.029 205.406 103.54 206.437 100.274 210.527C99.4915 211.508 98.9418 212.613 98.6579 213.778L95.9277 225.006H83.543L80.8129 213.796C79.6276 208.935 74.1015 205.824 68.4699 206.847C67.1198 207.092 65.8394 207.567 64.7029 208.242L53.8761 214.664L44.3831 206.489L51.8389 197.153C55.1077 193.065 53.9171 187.465 49.1804 184.644C48.0433 183.966 46.7616 183.491 45.4095 183.245L32.4204 180.884V170.2L45.4095 167.839C51.0391 166.809 54.6355 162.035 53.4417 157.176C53.1584 156.023 52.6159 154.93 51.8441 153.958L44.3831 144.596L53.8761 136.421L64.7081 142.86C69.4488 145.676 75.9374 144.641 79.1997 140.55C79.9812 139.57 80.5296 138.466 80.8129 137.302L81.7247 133.561C82.5596 138.742 83.9423 143.846 85.8564 148.809C68.7128 150.573 56.4721 163.998 58.5158 178.794C60.5595 193.59 76.1146 204.154 93.2581 202.39C103.578 201.328 112.612 195.909 117.363 187.931ZM109.271 181.595C105.38 190.928 93.46 195.772 82.6456 192.415C71.8311 189.057 66.2184 178.769 70.1085 169.436C73.0848 162.296 80.9399 157.54 89.7321 157.555C89.7999 157.555 89.8624 157.555 89.9301 157.555C94.7216 166.472 101.265 174.605 109.271 181.595ZM321.921 114.225L306.811 112.363C298.265 111.31 290.348 116.436 289.128 123.811C288.542 127.353 289.61 130.951 292.097 133.813L301.252 144.349L284.579 155.141L275.42 144.609C270.241 138.648 260.443 137.439 253.537 141.909C250.221 144.055 248.028 147.251 247.441 150.792L245.331 163.851L224.703 161.306L226.86 148.265C228.084 140.89 222.148 134.055 213.603 132.999C209.497 132.492 205.326 133.414 202.008 135.562L189.8 143.463L177.296 129.073L189.498 121.168C196.405 116.698 197.806 108.243 192.627 102.282C190.14 99.4202 186.438 97.5277 182.334 97.0207L167.224 95.159L170.173 77.3565L185.283 79.2182C193.828 80.2744 201.748 75.1515 202.971 67.7763C203.559 64.2323 202.491 60.6327 200.002 57.7689L190.816 47.2241L207.489 36.432L216.648 46.9678C221.827 52.9287 231.624 54.1378 238.531 49.668C241.847 47.522 244.04 44.3265 244.627 40.7848L246.784 27.7443L267.411 30.285L265.254 43.3254C264.034 50.7012 269.972 57.5339 278.518 58.5873C282.622 59.0932 286.791 58.1713 290.107 56.0241L302.315 48.1234L314.819 62.5129L302.612 70.4181C295.705 74.8879 294.304 83.3434 299.483 89.3038C301.97 92.1659 305.672 94.0585 309.776 94.5655L324.885 96.4271L321.921 114.225Z" fill="black"/>
<path d="M246.039 59.8149C223.019 59.8149 204.357 75.921 204.357 95.7886C204.357 115.656 223.019 131.762 246.039 131.762C269.059 131.762 287.721 115.656 287.721 95.7886C287.695 75.93 269.049 59.8368 246.039 59.8149ZM246.039 122.769C228.774 122.769 214.778 110.69 214.778 95.7886C214.778 80.8876 228.774 68.8083 246.039 68.8083C263.305 68.8083 277.3 80.8876 277.3 95.7886C277.28 110.682 263.296 122.751 246.039 122.769Z" fill="black"/>
<path d="M184.892 216.013H174.472V229.503H184.892V216.013Z" fill="black"/>
<path d="M156.892 171.85C124.729 161.007 108.841 129.713 121.406 101.954C126.275 91.198 135.013 82.0736 146.336 75.9221L140.767 68.3137C106.682 86.8463 96.4572 125.718 117.93 155.135C126.247 166.528 138.577 175.32 153.11 180.219C165.974 184.473 174.468 195.13 174.472 207.019H184.892C184.908 191.42 173.77 177.43 156.892 171.85Z" fill="black"/>
<path d="M315.147 184.536H278.676V193.529H315.147V184.536Z" fill="black"/>
<path d="M276.802 208.058L270.132 214.968L301.395 237.448L308.065 230.538L276.802 208.058Z" fill="black"/>
<path d="M257.835 220.509H247.415V251.986H257.835V220.509Z" fill="black"/>
<path d="M68.9991 85.7399L27.3203 94.7318L29.846 103.452L71.5248 94.46L68.9991 85.7399Z" fill="black"/>
<path d="M42.0285 41.4843L35.9752 48.7986L72.4438 71.2798L78.4971 63.9655L42.0285 41.4843Z" fill="black"/>
<path d="M90.7121 17.0375L80.6168 19.2652L91.2731 55.2361L101.368 53.0084L90.7121 17.0375Z" fill="black"/>
</g>
</g>
<defs>
<filter id="filter0_d" x="65.0203" y="317.216" width="233.835" height="55.168" filterUnits="userSpaceOnUse" color-interpolation-filters="sRGB">
<feFlood flood-opacity="0" result="BackgroundImageFix"/>
<feColorMatrix in="SourceAlpha" type="matrix" values="0 0 0 0 0 0 0 0 0 0 0 0 0 0 0 0 0 0 127 0"/>
<feOffset dy="4"/>
<feGaussianBlur stdDeviation="2"/>
<feColorMatrix type="matrix" values="0 0 0 0 0 0 0 0 0 0 0 0 0 0 0 0 0 0 0.25 0"/>
<feBlend mode="normal" in2="BackgroundImageFix" result="effect1_dropShadow"/>
<feBlend mode="normal" in="SourceGraphic" in2="effect1_dropShadow" result="shape"/>
</filter>
<clipPath id="clip0">
<rect width="360" height="382" fill="white"/>
</clipPath>
<clipPath id="clip1">
<rect width="314" height="271" fill="white" transform="translate(22 17)"/>
</clipPath>
</defs>
</svg>
