<svg id="Layer_5" enable-background="new 0 0 64 64" height="512" viewBox="0 0 64 64" width="512" xmlns="http://www.w3.org/2000/svg"><g><path d="m23 53h-6c-1.103 0-2 .897-2 2v2c0 1.103.897 2 2 2h6c1.103 0 2-.897 2-2v-2c0-1.103-.897-2-2-2zm-6 4v-2h6l.001 2z"/><path d="m9 53h-2c-1.103 0-2 .897-2 2v2c0 1.103.897 2 2 2h2c1.103 0 2-.897 2-2v-2c0-1.103-.897-2-2-2zm-2 4v-2h2l.001 2z"/><path d="m33 53h-2c-1.103 0-2 .897-2 2v2c0 1.103.897 2 2 2h2c1.103 0 2-.897 2-2v-2c0-1.103-.897-2-2-2zm-2 4v-2h2l.001 2z"/><circle cx="20" cy="6" r="1"/><circle cx="34" cy="6" r="1"/><path d="m19 25.145v-2.145h-2v2.145c-1.155.366-2 1.435-2 2.709 0 1.088.604 2.066 1.578 2.553l1.949.975c.292.145.473.438.473.764 0 .471-.384.854-.854.854h-.291c-.471 0-.855-.383-.855-.854v-.146h-2v.146c0 1.274.845 2.343 2 2.709v2.145h2v-2.145c1.155-.366 2-1.435 2-2.709 0-1.088-.604-2.066-1.578-2.553l-1.949-.975c-.292-.145-.473-.438-.473-.764 0-.471.384-.854.854-.854h.291c.471 0 .855.383.855.854v.146h2v-.146c0-1.274-.845-2.343-2-2.709z"/><path d="m49.972 11.386 3.146 3.146-9.18 10.055-4.938-4.527v-14.06c0-2.757-2.243-5-5-5h-28c-2.757 0-5 2.243-5 5v52c0 2.757 2.243 5 5 5h28c2.757 0 5-2.243 5-5v-17h18v-21.496l.525-.564 3.089 3.088 2.66-13.303zm-12.972-5.386v3h-13.026c.635-.838 1.026-1.87 1.026-3v-3h9c1.654 0 3 1.346 3 3zm-20 0v-3h6v3c0 1.654-1.346 3-3 3s-3-1.346-3-3zm-11-3h9v3c0 1.13.391 2.162 1.026 3h-13.026v-3c0-1.654 1.346-3 3-3zm28 58h-28c-1.654 0-3-1.346-3-3v-7h34v7c0 1.654-1.346 3-3 3zm3-12h-34v-38h34v7.227l-5.03-4.611-7.504 7.504c-1.818-1.327-4.049-2.12-6.466-2.12-6.065 0-11 4.935-11 11s4.935 11 11 11h19zm14-23.051v13.051h-2v-10.903zm-4 13.051h-2v-6.607l2-2.148zm-4 0h-2v-8.393l2 1.833zm-4 0h-2v-12.06l2 1.833zm-4 0h-2v-15.727l2 1.833zm-4 0h-6.695c2.834-1.992 4.695-5.28 4.695-9 0-1.363-.261-2.664-.716-3.87l2.716-2.716zm-4-9c0 4.962-4.037 9-9 9s-9-4.038-9-9 4.037-9 9-9 9 4.038 9 9zm28 9h-2v-15.199l2-2.148zm4.386-21.028-1.911-1.912-6.462 6.94h-.013v.014l-7.056 7.578-11.974-10.976-4.619 4.62c-.399-.645-.86-1.246-1.379-1.793l6.059-6.058 4.969 4.555v.06h.065l6.997 6.414 11.82-12.945-1.854-1.854 6.697-1.339z"/><path d="m5 45h2v2h-2z"/><path d="m9 45h2v2h-2z"/><path d="m13 45h2v2h-2z"/></g></svg>